<mxfile host="Electron" modified="2023-04-22T10:00:48.261Z" agent="Mozilla/5.0 (Windows NT 10.0; Win64; x64) AppleWebKit/537.36 (KHTML, like Gecko) draw.io/21.2.1 Chrome/112.0.5615.87 Electron/24.1.2 Safari/537.36" etag="hJVueftD1mFIUqPIl0Yk" version="21.2.1" type="device">
  <diagram name="1 oldal" id="lC2xcyvFqsYngtRDAqp9">
    <mxGraphModel dx="1727" dy="2207" grid="1" gridSize="10" guides="1" tooltips="1" connect="1" arrows="1" fold="1" page="1" pageScale="1" pageWidth="827" pageHeight="1169" math="0" shadow="1">
      <root>
        <mxCell id="0" />
        <mxCell id="1" parent="0" />
        <mxCell id="R2okf5LRxk1xpyU8hfCi-13" value="" style="group" vertex="1" connectable="0" parent="1">
          <mxGeometry x="13" y="-1160" width="800" height="800" as="geometry" />
        </mxCell>
        <mxCell id="AA3GGCTWGusa9qVexp79-1" value="" style="whiteSpace=wrap;html=1;aspect=fixed;fontFamily=Comic Sans MS;rounded=0;" parent="R2okf5LRxk1xpyU8hfCi-13" vertex="1">
          <mxGeometry width="800" height="800" as="geometry" />
        </mxCell>
        <mxCell id="AA3GGCTWGusa9qVexp79-40" value="" style="whiteSpace=wrap;html=1;aspect=fixed;fontFamily=Comic Sans MS;rounded=1;" parent="R2okf5LRxk1xpyU8hfCi-13" vertex="1">
          <mxGeometry x="560" y="299.5" width="200" height="200" as="geometry" />
        </mxCell>
        <mxCell id="R2okf5LRxk1xpyU8hfCi-1" value="" style="group" vertex="1" connectable="0" parent="R2okf5LRxk1xpyU8hfCi-13">
          <mxGeometry x="560" y="49" width="200" height="200" as="geometry" />
        </mxCell>
        <mxCell id="AA3GGCTWGusa9qVexp79-12" value="" style="whiteSpace=wrap;html=1;aspect=fixed;fontFamily=Comic Sans MS;rounded=1;" parent="R2okf5LRxk1xpyU8hfCi-1" vertex="1">
          <mxGeometry width="200" height="200" as="geometry" />
        </mxCell>
        <mxCell id="AA3GGCTWGusa9qVexp79-13" value="SZÓSZEDET&amp;nbsp; MEGNEVEZÉSE" style="text;html=1;strokeColor=none;fillColor=none;align=center;verticalAlign=middle;whiteSpace=wrap;rounded=0;fontSize=14;fontFamily=Comic Sans MS;fontStyle=1" parent="R2okf5LRxk1xpyU8hfCi-1" vertex="1">
          <mxGeometry x="15" y="140" width="170" height="40" as="geometry" />
        </mxCell>
        <mxCell id="AA3GGCTWGusa9qVexp79-14" value="" style="image;html=1;points=[];align=center;fontSize=12;image=img/lib/azure2/general/Image.svg;aspect=fixed;" parent="R2okf5LRxk1xpyU8hfCi-1" vertex="1">
          <mxGeometry x="27.269999999999982" y="20" width="145.46" height="100" as="geometry" />
        </mxCell>
        <mxCell id="R2okf5LRxk1xpyU8hfCi-2" value="" style="group" vertex="1" connectable="0" parent="R2okf5LRxk1xpyU8hfCi-13">
          <mxGeometry x="300.5" y="49" width="200" height="200" as="geometry" />
        </mxCell>
        <mxCell id="AA3GGCTWGusa9qVexp79-8" value="" style="whiteSpace=wrap;html=1;aspect=fixed;fontFamily=Comic Sans MS;rounded=1;" parent="R2okf5LRxk1xpyU8hfCi-2" vertex="1">
          <mxGeometry width="200" height="200" as="geometry" />
        </mxCell>
        <mxCell id="AA3GGCTWGusa9qVexp79-9" value="SZÓSZEDET&amp;nbsp; MEGNEVEZÉSE" style="text;html=1;strokeColor=none;fillColor=none;align=center;verticalAlign=middle;whiteSpace=wrap;rounded=0;fontSize=14;fontFamily=Comic Sans MS;fontStyle=1" parent="R2okf5LRxk1xpyU8hfCi-2" vertex="1">
          <mxGeometry x="15" y="140" width="170" height="40" as="geometry" />
        </mxCell>
        <mxCell id="AA3GGCTWGusa9qVexp79-10" value="" style="image;html=1;points=[];align=center;fontSize=12;image=img/lib/azure2/general/Image.svg;aspect=fixed;" parent="R2okf5LRxk1xpyU8hfCi-2" vertex="1">
          <mxGeometry x="27.269999999999982" y="20" width="145.46" height="100" as="geometry" />
        </mxCell>
        <mxCell id="R2okf5LRxk1xpyU8hfCi-3" value="" style="group" vertex="1" connectable="0" parent="R2okf5LRxk1xpyU8hfCi-13">
          <mxGeometry x="40" y="49" width="200" height="200" as="geometry" />
        </mxCell>
        <mxCell id="AA3GGCTWGusa9qVexp79-2" value="" style="whiteSpace=wrap;html=1;aspect=fixed;fontFamily=Comic Sans MS;rounded=1;" parent="R2okf5LRxk1xpyU8hfCi-3" vertex="1">
          <mxGeometry width="200" height="200" as="geometry" />
        </mxCell>
        <mxCell id="AA3GGCTWGusa9qVexp79-3" value="SZÓSZEDET&amp;nbsp; MEGNEVEZÉSE" style="text;html=1;strokeColor=none;fillColor=none;align=center;verticalAlign=middle;whiteSpace=wrap;rounded=0;fontSize=14;fontFamily=Comic Sans MS;fontStyle=1" parent="R2okf5LRxk1xpyU8hfCi-3" vertex="1">
          <mxGeometry x="15" y="140" width="170" height="40" as="geometry" />
        </mxCell>
        <mxCell id="AA3GGCTWGusa9qVexp79-5" value="" style="image;html=1;points=[];align=center;fontSize=12;image=img/lib/azure2/general/Image.svg;aspect=fixed;" parent="R2okf5LRxk1xpyU8hfCi-3" vertex="1">
          <mxGeometry x="27.27000000000001" y="20" width="145.46" height="100" as="geometry" />
        </mxCell>
        <mxCell id="R2okf5LRxk1xpyU8hfCi-5" value="" style="group" vertex="1" connectable="0" parent="R2okf5LRxk1xpyU8hfCi-13">
          <mxGeometry x="300.5" y="549" width="200" height="200" as="geometry" />
        </mxCell>
        <mxCell id="AA3GGCTWGusa9qVexp79-36" value="" style="whiteSpace=wrap;html=1;aspect=fixed;fontFamily=Comic Sans MS;rounded=1;" parent="R2okf5LRxk1xpyU8hfCi-5" vertex="1">
          <mxGeometry width="200" height="200" as="geometry" />
        </mxCell>
        <mxCell id="AA3GGCTWGusa9qVexp79-37" value="SZÓSZEDET&amp;nbsp; MEGNEVEZÉSE" style="text;html=1;strokeColor=none;fillColor=none;align=center;verticalAlign=middle;whiteSpace=wrap;rounded=0;fontSize=14;fontFamily=Comic Sans MS;fontStyle=1" parent="R2okf5LRxk1xpyU8hfCi-5" vertex="1">
          <mxGeometry x="15" y="140" width="170" height="40" as="geometry" />
        </mxCell>
        <mxCell id="AA3GGCTWGusa9qVexp79-38" value="" style="image;html=1;points=[];align=center;fontSize=12;image=img/lib/azure2/general/Image.svg;aspect=fixed;" parent="R2okf5LRxk1xpyU8hfCi-5" vertex="1">
          <mxGeometry x="27.269999999999982" y="20" width="145.46" height="100" as="geometry" />
        </mxCell>
        <mxCell id="R2okf5LRxk1xpyU8hfCi-6" value="" style="group" vertex="1" connectable="0" parent="R2okf5LRxk1xpyU8hfCi-13">
          <mxGeometry x="40" y="549" width="200" height="200" as="geometry" />
        </mxCell>
        <mxCell id="AA3GGCTWGusa9qVexp79-20" value="" style="whiteSpace=wrap;html=1;aspect=fixed;fontFamily=Comic Sans MS;rounded=1;" parent="R2okf5LRxk1xpyU8hfCi-6" vertex="1">
          <mxGeometry width="200" height="200" as="geometry" />
        </mxCell>
        <mxCell id="AA3GGCTWGusa9qVexp79-21" value="SZÓSZEDET&amp;nbsp; MEGNEVEZÉSE" style="text;html=1;strokeColor=none;fillColor=none;align=center;verticalAlign=middle;whiteSpace=wrap;rounded=0;fontSize=14;fontFamily=Comic Sans MS;fontStyle=1" parent="R2okf5LRxk1xpyU8hfCi-6" vertex="1">
          <mxGeometry x="15" y="140" width="170" height="40" as="geometry" />
        </mxCell>
        <mxCell id="AA3GGCTWGusa9qVexp79-22" value="" style="image;html=1;points=[];align=center;fontSize=12;image=img/lib/azure2/general/Image.svg;aspect=fixed;" parent="R2okf5LRxk1xpyU8hfCi-6" vertex="1">
          <mxGeometry x="27.27000000000001" y="20" width="145.46" height="100" as="geometry" />
        </mxCell>
        <mxCell id="R2okf5LRxk1xpyU8hfCi-7" value="" style="group" vertex="1" connectable="0" parent="R2okf5LRxk1xpyU8hfCi-13">
          <mxGeometry x="575" y="319.5" width="170" height="160" as="geometry" />
        </mxCell>
        <mxCell id="AA3GGCTWGusa9qVexp79-41" value="SZÓSZEDET&amp;nbsp; MEGNEVEZÉSE" style="text;html=1;strokeColor=none;fillColor=none;align=center;verticalAlign=middle;whiteSpace=wrap;rounded=0;fontSize=14;fontFamily=Comic Sans MS;fontStyle=1" parent="R2okf5LRxk1xpyU8hfCi-7" vertex="1">
          <mxGeometry y="120" width="170" height="40" as="geometry" />
        </mxCell>
        <mxCell id="AA3GGCTWGusa9qVexp79-42" value="" style="image;html=1;points=[];align=center;fontSize=12;image=img/lib/azure2/general/Image.svg;aspect=fixed;" parent="R2okf5LRxk1xpyU8hfCi-7" vertex="1">
          <mxGeometry x="12.269999999999982" width="145.46" height="100" as="geometry" />
        </mxCell>
        <mxCell id="R2okf5LRxk1xpyU8hfCi-8" value="" style="group" vertex="1" connectable="0" parent="R2okf5LRxk1xpyU8hfCi-13">
          <mxGeometry x="300.5" y="299.5" width="200" height="200" as="geometry" />
        </mxCell>
        <mxCell id="AA3GGCTWGusa9qVexp79-16" value="" style="whiteSpace=wrap;html=1;aspect=fixed;fontFamily=Comic Sans MS;rounded=1;" parent="R2okf5LRxk1xpyU8hfCi-8" vertex="1">
          <mxGeometry width="200" height="200" as="geometry" />
        </mxCell>
        <mxCell id="AA3GGCTWGusa9qVexp79-17" value="SZÓSZEDET&amp;nbsp; MEGNEVEZÉSE" style="text;html=1;strokeColor=none;fillColor=none;align=center;verticalAlign=middle;whiteSpace=wrap;rounded=0;fontSize=14;fontFamily=Comic Sans MS;fontStyle=1" parent="R2okf5LRxk1xpyU8hfCi-8" vertex="1">
          <mxGeometry x="15" y="140" width="170" height="40" as="geometry" />
        </mxCell>
        <mxCell id="AA3GGCTWGusa9qVexp79-18" value="" style="image;html=1;points=[];align=center;fontSize=12;image=img/lib/azure2/general/Image.svg;aspect=fixed;" parent="R2okf5LRxk1xpyU8hfCi-8" vertex="1">
          <mxGeometry x="27.269999999999982" y="20" width="145.46" height="100" as="geometry" />
        </mxCell>
        <mxCell id="R2okf5LRxk1xpyU8hfCi-9" value="" style="group" vertex="1" connectable="0" parent="R2okf5LRxk1xpyU8hfCi-13">
          <mxGeometry x="40" y="299.5" width="200" height="200" as="geometry" />
        </mxCell>
        <mxCell id="AA3GGCTWGusa9qVexp79-24" value="" style="whiteSpace=wrap;html=1;aspect=fixed;fontFamily=Comic Sans MS;rounded=1;" parent="R2okf5LRxk1xpyU8hfCi-9" vertex="1">
          <mxGeometry width="200" height="200" as="geometry" />
        </mxCell>
        <mxCell id="AA3GGCTWGusa9qVexp79-25" value="SZÓSZEDET&amp;nbsp; MEGNEVEZÉSE" style="text;html=1;strokeColor=none;fillColor=none;align=center;verticalAlign=middle;whiteSpace=wrap;rounded=0;fontSize=14;fontFamily=Comic Sans MS;fontStyle=1" parent="R2okf5LRxk1xpyU8hfCi-9" vertex="1">
          <mxGeometry x="15" y="140" width="170" height="40" as="geometry" />
        </mxCell>
        <mxCell id="AA3GGCTWGusa9qVexp79-26" value="" style="image;html=1;points=[];align=center;fontSize=12;image=img/lib/azure2/general/Image.svg;aspect=fixed;" parent="R2okf5LRxk1xpyU8hfCi-9" vertex="1">
          <mxGeometry x="27.27000000000001" y="20" width="145.46" height="100" as="geometry" />
        </mxCell>
        <mxCell id="R2okf5LRxk1xpyU8hfCi-12" value="" style="group" vertex="1" connectable="0" parent="R2okf5LRxk1xpyU8hfCi-13">
          <mxGeometry x="560" y="549" width="200" height="200" as="geometry" />
        </mxCell>
        <mxCell id="AA3GGCTWGusa9qVexp79-28" value="" style="whiteSpace=wrap;html=1;aspect=fixed;fontFamily=Comic Sans MS;rounded=1;" parent="R2okf5LRxk1xpyU8hfCi-12" vertex="1">
          <mxGeometry width="200" height="200" as="geometry" />
        </mxCell>
        <mxCell id="AA3GGCTWGusa9qVexp79-29" value="SZÓSZEDET&amp;nbsp; MEGNEVEZÉSE" style="text;html=1;strokeColor=none;fillColor=none;align=center;verticalAlign=middle;whiteSpace=wrap;rounded=0;fontSize=14;fontFamily=Comic Sans MS;fontStyle=1" parent="R2okf5LRxk1xpyU8hfCi-12" vertex="1">
          <mxGeometry x="15" y="140" width="170" height="40" as="geometry" />
        </mxCell>
        <mxCell id="AA3GGCTWGusa9qVexp79-30" value="" style="image;html=1;points=[];align=center;fontSize=12;image=img/lib/azure2/general/Image.svg;aspect=fixed;" parent="R2okf5LRxk1xpyU8hfCi-12" vertex="1">
          <mxGeometry x="27.269999999999982" y="20" width="145.46" height="100" as="geometry" />
        </mxCell>
      </root>
    </mxGraphModel>
  </diagram>
</mxfile>
